<svg width="276" height="549" viewBox="0 0 276 549" fill="none" xmlns="http://www.w3.org/2000/svg">
<path d="M15 537L3.75 547.392L3.75 526.607L15 537Z" fill="white"/>
<path d="M12 537L5.25 543.062L5.25 530.938L12 537Z" fill="#08222C"/>
<path d="M3.75 535H5.25V539H3.75V535Z" fill="#08222C"/>
<path d="M31.1 529.4L45 533.52V536.1L34.48 539.02L45 542.12L45.02 544.68L31.1 548.62V546.2L42.42 543.32L31.1 540.2V537.64L42.36 534.74L31.1 531.84V529.4ZM32.94 525.24H37.02V520.44H38.88V525.24H43.14V519.84H45V527.52H31.08V519.84H32.94V525.24ZM42.16 503.456V509.276L45 510.276V512.656L31.08 507.676V505.036L45 500.056V502.456L42.16 503.456ZM40.3 504.096L33.84 506.356L40.3 508.636V504.096ZM43.16 495.611V490.911H45V497.891H31.1V495.611H43.16ZM31.1 470.904L45 475.024V477.604L34.48 480.524L45 483.624L45.02 486.184L31.1 490.124V487.704L42.42 484.824L31.1 481.704V479.144L42.36 476.244L31.1 473.344V470.904ZM42.16 460.643L42.16 466.463L45 467.463V469.843L31.08 464.863V462.223L45 457.243V459.643L42.16 460.643ZM40.3 461.283L33.84 463.543L40.3 465.823L40.3 461.283ZM31.1 444.778L39.96 449.378H45V451.658H39.96L31.1 456.278V453.738L37.92 450.518L31.1 447.298V444.778ZM45.14 438.389C45.14 439.322 44.98 440.162 44.66 440.909C44.3267 441.655 43.86 442.242 43.26 442.669C42.66 443.095 41.96 443.309 41.16 443.309V440.869C41.76 440.815 42.2533 440.582 42.64 440.169C43.0267 439.742 43.22 439.149 43.22 438.389C43.22 437.602 43.0333 436.989 42.66 436.549C42.2733 436.109 41.78 435.889 41.18 435.889C40.7133 435.889 40.3333 436.029 40.04 436.309C39.7467 436.575 39.52 436.915 39.36 437.329C39.2 437.729 39.0267 438.289 38.84 439.009C38.6 439.915 38.36 440.655 38.12 441.229C37.8667 441.789 37.48 442.269 36.96 442.669C36.44 443.069 35.7467 443.269 34.88 443.269C34.08 443.269 33.38 443.069 32.78 442.669C32.18 442.269 31.72 441.709 31.4 440.989C31.08 440.269 30.92 439.435 30.92 438.489C30.92 437.142 31.26 436.042 31.94 435.189C32.6067 434.322 33.5267 433.842 34.7 433.749V436.269C34.1933 436.309 33.76 436.549 33.4 436.989C33.04 437.429 32.86 438.009 32.86 438.729C32.86 439.382 33.0267 439.915 33.36 440.329C33.6933 440.742 34.1733 440.949 34.8 440.949C35.2267 440.949 35.58 440.822 35.86 440.569C36.1267 440.302 36.34 439.969 36.5 439.569C36.66 439.169 36.8333 438.622 37.02 437.929C37.2733 437.009 37.5267 436.262 37.78 435.689C38.0333 435.102 38.4267 434.609 38.96 434.209C39.48 433.795 40.18 433.589 41.06 433.589C41.7667 433.589 42.4333 433.782 43.06 434.169C43.6867 434.542 44.1933 435.095 44.58 435.829C44.9533 436.549 45.14 437.402 45.14 438.389Z" fill="white"/>
<path d="M156.84 510.36C156.84 520.2 154.52 528.28 149.88 534.6C145.16 540.92 138.44 544.32 129.72 544.8V519.72C132.68 519.48 134.84 518.6 136.2 517.08C137.56 515.56 138.24 513.6 138.24 511.2C138.24 509.04 137.72 507.28 136.68 505.92C135.56 504.48 134.04 503.76 132.12 503.76C129.64 503.76 127.72 504.92 126.36 507.24C125 509.56 123.48 513.32 121.8 518.52C119.96 524.04 118.2 528.52 116.52 531.96C114.76 535.32 112.24 538.28 108.96 540.84C105.6 543.32 101.24 544.56 95.88 544.56C90.44 544.56 85.8 543.2 81.96 540.48C78.04 537.76 75.08 534 73.08 529.2C71.08 524.4 70.08 518.96 70.08 512.88C70.08 503.04 72.4 495.2 77.04 489.36C81.6 483.44 88.04 480.28 96.36 479.88V505.44C93.8 505.52 91.88 506.32 90.6 507.84C89.32 509.28 88.68 511.16 88.68 513.48C88.68 515.24 89.2 516.68 90.24 517.8C91.28 518.92 92.76 519.48 94.68 519.48C96.28 519.48 97.68 518.88 98.88 517.68C100 516.4 101 514.84 101.88 513C102.68 511.16 103.72 508.44 105 504.84C106.84 499.48 108.68 495.08 110.52 491.64C112.28 488.12 114.8 485.12 118.08 482.64C121.28 480.08 125.36 478.8 130.32 478.8C135.36 478.8 139.88 480.08 143.88 482.64C147.88 485.12 151.04 488.76 153.36 493.56C155.68 498.28 156.84 503.88 156.84 510.36ZM71.4 411.346H90.12V433.906H156V457.426H90.12V479.746H71.4L71.4 411.346ZM142.2 356.324V386.324L156 390.884V415.604L71.4 384.764V357.644L156 326.924V351.764L142.2 356.324ZM124.2 362.204L96.84 371.324L124.2 380.324V362.204ZM156 283.618L124.8 300.418V302.938H156V326.458H71.4V289.378C71.4 282.578 72.6 276.818 75 272.098C77.32 267.378 80.56 263.818 84.72 261.418C88.8 259.018 93.4 257.818 98.52 257.818C104.28 257.818 109.36 259.418 113.76 262.618C118.08 265.738 121.16 270.338 123 276.418L156 257.338V283.618ZM108.72 302.938V291.298C108.72 288.098 107.96 285.698 106.44 284.098C104.92 282.498 102.72 281.698 99.84 281.698C97.12 281.698 95 282.538 93.48 284.218C91.88 285.818 91.08 288.178 91.08 291.298V302.938H108.72ZM71.4 190.602H90.12V213.162H156V236.682H90.12V259.002H71.4L71.4 190.602ZM142.2 119.812V149.812L156 154.372V179.092L71.4 148.252V121.132L156 90.4116V115.252L142.2 119.812ZM124.2 125.692L96.84 134.812L124.2 143.812V125.692ZM71.4 26.2256H90.12V48.7856H156V72.3056H90.12V94.6256H71.4V26.2256Z" fill="#00F5CA"/>
<path d="M179.4 478.56H198.12V501.12H264V524.64H198.12V546.96H179.4V478.56ZM179.4 401.338H264V424.858H230.04V453.538H264V477.058H179.4V453.538H211.2V424.858H179.4V401.338ZM198.24 371.558H212.04V344.558H229.92V371.558H245.16V340.958H264V395.078H179.4V340.958H198.24V371.558ZM198.24 297.248H212.04V270.247H229.92V297.248H245.16V266.647H264V320.768H179.4V266.647H198.24V297.248ZM264 183.865V207.385L216.72 238.705H264V262.225H179.4V238.705L227.28 207.385H179.4L179.4 183.865H264ZM179.4 144.188C179.4 135.308 181.2 127.548 184.8 120.908C188.32 114.188 193.28 109.028 199.68 105.428C206.08 101.828 213.4 100.028 221.64 100.028C229.8 100.028 237.08 101.868 243.48 105.548C249.88 109.148 254.92 114.308 258.6 121.028C262.2 127.668 264 135.388 264 144.188V177.668H179.4V144.188ZM243.24 145.988C243.24 139.108 241.36 133.708 237.6 129.788C233.84 125.868 228.52 123.908 221.64 123.908C214.68 123.908 209.32 125.868 205.56 129.788C201.72 133.708 199.8 139.108 199.8 145.988V154.148H243.24V145.988ZM264.96 54.2653C264.96 58.4253 263.84 61.7853 261.6 64.3453C259.28 66.8253 256.36 68.0653 252.84 68.0653C249.32 68.0653 246.4 66.8253 244.08 64.3453C241.76 61.7853 240.6 58.4253 240.6 54.2653C240.6 50.1853 241.76 46.9053 244.08 44.4253C246.4 41.8653 249.32 40.5853 252.84 40.5853C256.28 40.5853 259.16 41.8653 261.48 44.4253C263.8 46.9053 264.96 50.1853 264.96 54.2653ZM264.96 23.4253C264.96 27.5853 263.84 30.9453 261.6 33.5053C259.28 35.9853 256.36 37.2253 252.84 37.2253C249.32 37.2253 246.4 35.9853 244.08 33.5053C241.76 30.9453 240.6 27.5853 240.6 23.4253C240.6 19.3453 241.76 16.0653 244.08 13.5853C246.4 11.0253 249.32 9.7453 252.84 9.7453C256.28 9.7453 259.16 11.0253 261.48 13.5853C263.8 16.0653 264.96 19.3453 264.96 23.4253ZM264.96 85.2253C264.96 89.3853 263.84 92.7453 261.6 95.3053C259.28 97.7853 256.36 99.0253 252.84 99.0253C249.32 99.0253 246.4 97.7853 244.08 95.3053C241.76 92.7453 240.6 89.3853 240.6 85.2253C240.6 81.1453 241.76 77.8653 244.08 75.3853C246.4 72.8253 249.32 71.5453 252.84 71.5453C256.28 71.5453 259.16 72.8253 261.48 75.3853C263.8 77.8653 264.96 81.1453 264.96 85.2253Z" fill="#FF1D85"/>
</svg>
