<svg width="202" height="74" viewBox="0 0 202 74" fill="none" xmlns="http://www.w3.org/2000/svg">
<path d="M42.616 0.559999L42.5 39.5L34.776 39.648V14.224L24.304 39.648H18.368L7.84 14.224V39.648H0V0.559999H8.904L21.336 29.624L33.768 0.559999H42.616Z" fill="#00F5CA"/>
<path d="M74.3352 32.2H58.7672L56.1912 39.648H47.9592L62.0152 0.503997H71.1432L85.1992 39.648H76.9112L74.3352 32.2ZM72.2072 25.928L66.5512 9.576L60.8952 25.928H72.2072Z" fill="#00F5CA"/>
<path d="M103.949 40.04C101.224 40.04 98.7598 39.5733 96.5571 38.64C94.3918 37.7067 92.6745 36.3627 91.4051 34.608C90.1358 32.8533 89.4825 30.7813 89.4451 28.392H97.8451C97.9571 29.9973 98.5171 31.2667 99.5251 32.2C100.57 33.1333 101.989 33.6 103.781 33.6C105.61 33.6 107.048 33.1707 108.093 32.312C109.138 31.416 109.661 30.2587 109.661 28.84C109.661 27.6827 109.306 26.7307 108.597 25.984C107.888 25.2373 106.992 24.6587 105.909 24.248C104.864 23.8 103.408 23.3147 101.541 22.792C99.0025 22.0453 96.9305 21.3173 95.3251 20.608C93.7571 19.8613 92.3945 18.76 91.2371 17.304C90.1171 15.8107 89.5571 13.832 89.5571 11.368C89.5571 9.05333 90.1358 7.03733 91.2931 5.32C92.4505 3.60266 94.0745 2.296 96.1651 1.4C98.2558 0.466666 100.645 0 103.333 0C107.365 0 110.632 0.989333 113.133 2.968C115.672 4.90933 117.072 7.63467 117.333 11.144H108.709C108.634 9.8 108.056 8.69867 106.973 7.84C105.928 6.944 104.528 6.496 102.773 6.496C101.242 6.496 100.01 6.888 99.0771 7.672C98.1811 8.456 97.7331 9.59467 97.7331 11.088C97.7331 12.1333 98.0691 13.0107 98.7411 13.72C99.4505 14.392 100.309 14.952 101.317 15.4C102.362 15.8107 103.818 16.296 105.685 16.856C108.224 17.6027 110.296 18.3493 111.901 19.096C113.506 19.8427 114.888 20.9627 116.045 22.456C117.202 23.9493 117.781 25.9093 117.781 28.336C117.781 30.4267 117.24 32.368 116.157 34.16C115.074 35.952 113.488 37.3893 111.397 38.472C109.306 39.5173 106.824 40.04 103.949 40.04Z" fill="#00F5CA"/>
<path d="M142.722 40.04C139.063 40.04 135.703 39.1813 132.642 37.464C129.581 35.7467 127.154 33.376 125.362 30.352C123.57 27.2907 122.674 23.8373 122.674 19.992C122.674 16.184 123.57 12.768 125.362 9.744C127.154 6.68266 129.581 4.29333 132.642 2.576C135.703 0.858666 139.063 0 142.722 0C146.418 0 149.778 0.858666 152.802 2.576C155.863 4.29333 158.271 6.68266 160.026 9.744C161.818 12.768 162.714 16.184 162.714 19.992C162.714 23.8373 161.818 27.2907 160.026 30.352C158.271 33.376 155.863 35.7467 152.802 37.464C149.741 39.1813 146.381 40.04 142.722 40.04ZM142.722 33.04C145.074 33.04 147.146 32.5173 148.938 31.472C150.73 30.3893 152.13 28.8587 153.138 26.88C154.146 24.9013 154.65 22.6053 154.65 19.992C154.65 17.3787 154.146 15.1013 153.138 13.16C152.13 11.1813 150.73 9.66933 148.938 8.624C147.146 7.57867 145.074 7.056 142.722 7.056C140.37 7.056 138.279 7.57867 136.45 8.624C134.658 9.66933 133.258 11.1813 132.25 13.16C131.242 15.1013 130.738 17.3787 130.738 19.992C130.738 22.6053 131.242 24.9013 132.25 26.88C133.258 28.8587 134.658 30.3893 136.45 31.472C138.279 32.5173 140.37 33.04 142.722 33.04Z" fill="#00F5CA"/>
<path d="M201.979 39.648H194.139L176.387 12.824V39.648H168.547V0.503997H176.387L194.139 27.384V0.503997H201.979V39.648Z" fill="#00F5CA"/>
<path d="M42.5 39.5L33.785 72.7029H26.6837L21.0457 48.7681L15.1495 72.7029L8.0912 72.7511L0 39.5L7.82739 39.0882L11.7494 65.1902L18.1488 39.0882H24.5749L30.342 65.0457L34.8752 39.0882L42.5 39.5Z" fill="#00F5CA"/>
<path d="M52.1372 44.5301V52.9579H62.2512V58.3035H52.1372V67.2128H63.5423V72.7029H46.1118V39.04H63.5423V44.5301H52.1372Z" fill="#00F5CA"/>
<path d="M86.0611 55.4621C87.7539 55.8153 89.1455 56.7624 90.2358 58.3035C91.3261 59.8446 91.8713 61.6104 91.8713 63.6009C91.8713 65.3989 91.4696 66.9881 90.6662 68.3686C89.8915 69.7171 88.7581 70.7766 87.2662 71.5471C85.7742 72.3177 84.0096 72.7029 81.9725 72.7029H69.0179V39.0882H81.4129C83.4501 39.0882 85.2003 39.4574 86.6636 40.1958C88.1556 40.9343 89.2746 41.9617 90.0206 43.278C90.7953 44.5943 91.1826 46.0873 91.1826 47.7568C91.1826 49.7152 90.7092 51.3526 89.7624 52.6689C88.8442 53.9853 87.6105 54.9163 86.0611 55.4621ZM75.0433 52.9579H80.5522C81.9868 52.9579 83.0914 52.6047 83.8661 51.8984C84.6408 51.16 85.0282 50.1165 85.0282 48.7681C85.0282 47.4196 84.6408 46.3762 83.8661 45.6378C83.0914 44.8993 81.9868 44.5301 80.5522 44.5301H75.0433V52.9579ZM81.1117 67.2128C82.575 67.2128 83.7083 66.8276 84.5117 66.057C85.3438 65.2865 85.7598 64.1949 85.7598 62.7822C85.7598 61.3375 85.3294 60.2138 84.4687 59.4111C83.6079 58.5764 82.4459 58.159 80.9826 58.159H75.0433V67.2128H81.1117Z" fill="#00F5CA"/>
<path d="M94.244 49.944C94.3613 46.8053 95.388 44.3853 97.324 42.684C99.26 40.9827 101.885 40.132 105.2 40.132C107.4 40.132 109.277 40.5133 110.832 41.276C112.416 42.0387 113.604 43.08 114.396 44.4C115.217 45.72 115.628 47.2013 115.628 48.844C115.628 50.78 115.144 52.364 114.176 53.596C113.208 54.7987 112.079 55.62 110.788 56.06V56.236C112.46 56.7933 113.78 57.7173 114.748 59.008C115.716 60.2987 116.2 61.956 116.2 63.98C116.2 65.7987 115.775 67.412 114.924 68.82C114.103 70.1987 112.885 71.284 111.272 72.076C109.688 72.868 107.796 73.264 105.596 73.264C102.076 73.264 99.26 72.3987 97.148 70.668C95.0653 68.9373 93.9653 66.3267 93.848 62.836H101.152C101.181 64.1267 101.548 65.1533 102.252 65.916C102.956 66.6493 103.983 67.016 105.332 67.016C106.476 67.016 107.356 66.6933 107.972 66.048C108.617 65.3733 108.94 64.4933 108.94 63.408C108.94 62 108.485 60.988 107.576 60.372C106.696 59.7267 105.273 59.404 103.308 59.404H101.9V53.288H103.308C104.804 53.288 106.007 53.0387 106.916 52.54C107.855 52.012 108.324 51.088 108.324 49.768C108.324 48.712 108.031 47.8907 107.444 47.304C106.857 46.7173 106.051 46.424 105.024 46.424C103.909 46.424 103.073 46.7613 102.516 47.436C101.988 48.1107 101.68 48.9467 101.592 49.944H94.244Z" fill="#FF1D85"/>
</svg>
